<?xml version="1.0" encoding="utf-8"?>

<!DOCTYPE svg PUBLIC "-//W3C//DTD SVG 1.1//EN" "http://www.w3.org/Graphics/SVG/1.1/DTD/svg11.dtd">
<!-- Uploaded to: SVG Repo, www.svgrepo.com, Generator: SVG Repo Mixer Tools -->
<svg height="800px" width="800px" version="1.1" id="_x32_" xmlns="http://www.w3.org/2000/svg" xmlns:xlink="http://www.w3.org/1999/xlink" 
	 viewBox="0 0 512 512"  xml:space="preserve">
<style type="text/css">
	.st0{fill:#000000;}
</style>
<g>
	<path class="st0" d="M456.479,12.895L418.139,0.78c-8.795-2.776-18.164,2.097-20.946,10.886l-18.248,57.763h-93.602
		c-4.656-10.123-14.85-17.171-26.721-17.171c-11.885,0-22.093,7.048-26.736,17.171h-91.084l11.242-35.594
		c2.783-8.795-2.098-18.164-10.892-20.94L102.811,0.78c-8.796-2.776-18.178,2.097-20.946,10.886l-37.236,117.89
		c-2.783,8.788,2.098,18.171,10.892,20.946l38.342,12.11c8.795,2.782,18.164-2.098,20.946-10.886l18.248-57.763h98.817
		c2.937,6.39,8.082,11.536,14.472,14.472V171h24.54v-62.566c6.39-2.937,11.536-8.082,14.472-14.472h85.841l-11.242,35.594
		c-2.768,8.788,2.098,18.171,10.879,20.946l38.355,12.11c8.795,2.782,18.164-2.098,20.946-10.886l37.236-117.89
		C470.155,25.039,465.275,15.671,456.479,12.895z"/>
	<path class="st0" d="M443.098,354.986h-40.215c-9.228,0-16.695,7.474-16.695,16.689v49.548H285.987
		c-2.796-7.061-8.236-12.766-15.102-15.926v-65.028h-24.54v65.028c-6.866,3.16-12.305,8.865-15.102,15.926H131.042v-49.548
		c0-9.215-7.467-16.689-16.682-16.689H74.132c-9.214,0-16.682,7.474-16.682,16.689v123.636c0,9.214,7.467,16.689,16.682,16.689
		h40.229c9.214,0,16.682-7.474,16.682-16.689v-49.548h101.544c4.936,9.341,14.724,15.71,26.036,15.71
		c11.284,0,21.086-6.37,26.022-15.71h101.544v49.548c0,9.214,7.467,16.689,16.695,16.689h40.215c9.215,0,16.696-7.474,16.696-16.689
		V371.675C459.793,362.46,452.313,354.986,443.098,354.986z"/>
	<polygon class="st0" points="147.612,199.916 109.872,269.369 109.872,288.4 154.883,288.4 154.883,310.032 174.207,310.032 
		174.207,288.4 184.261,288.4 184.261,269.369 174.207,269.369 174.207,242.382 154.883,242.382 154.883,269.369 131.839,269.369 
		169.565,199.916 	"/>
	<polygon class="st0" points="257.573,243.221 277.834,310.032 295.775,310.032 325.306,199.916 302.892,199.916 285.721,269.355 
		265.613,199.916 249.533,199.916 229.426,269.355 212.408,199.916 189.98,199.916 219.372,310.032 237.312,310.032 	"/>
	<path class="st0" d="M412.07,293.951c1.65-2.378,2.965-4.88,3.943-7.509c0.979-2.629,1.678-5.509,2.098-8.656
		c0.405-3.146,0.657-6.599,0.769-10.368c0.098-3.761,0.154-7.907,0.154-12.445c0-4.538-0.056-8.684-0.154-12.451
		c-0.112-3.762-0.364-7.215-0.769-10.362c-0.419-3.146-1.119-6.034-2.098-8.663c-0.978-2.635-2.293-5.124-3.943-7.501
		c-3.916-5.566-8.558-9.634-13.912-12.214c-5.37-2.58-11.816-3.866-19.339-3.866h-39.739v110.115h39.739
		c7.523,0,13.969-1.294,19.339-3.867C403.512,303.586,408.154,299.509,412.07,293.951z M397.374,266.181
		c-0.098,3.153-0.294,5.831-0.616,8.047c-0.307,2.216-0.741,4.096-1.314,5.642c-0.56,1.552-1.371,2.943-2.391,4.174
		c-3.608,4.538-8.977,6.803-16.08,6.803h-16.402v-71.754h16.402c7.104,0,12.473,2.272,16.08,6.803
		c1.02,1.237,1.831,2.629,2.391,4.174c0.573,1.545,1.006,3.426,1.314,5.642c0.322,2.223,0.518,4.901,0.616,8.047
		c0.112,3.147,0.167,6.88,0.167,11.214C397.541,259.301,397.486,263.042,397.374,266.181z"/>
</g>
</svg>